<?xml version="1.0" encoding="UTF-8"?>
<svg version="1.1" xmlns="http://www.w3.org/2000/svg" width="294" height="353">
<path d="M0 0 C2.35578978 3.53368467 3.65780522 7.23478724 5.125 11.1875 C8.52282109 20.11070784 12.49730671 28.58570057 17 37 C17.48919922 37.92039062 17.48919922 37.92039062 17.98828125 38.859375 C22.61054294 47.47777527 27.88029085 55.36789137 34 63 C34.79792969 64.00289063 35.59585938 65.00578125 36.41796875 66.0390625 C57.23429767 91.67736624 82.62182609 110.27782952 112 125 C113.0828125 125.56332031 114.165625 126.12664062 115.28125 126.70703125 C121.53681839 129.77079035 121.53681839 129.77079035 128.25 129.3125 C129.85659655 128.59140639 131.43694967 127.81117331 133 127 C134.14855469 126.45601563 135.29710937 125.91203125 136.48046875 125.3515625 C140.70409308 123.32925196 144.8562479 121.18053929 149 119 C149.75619629 118.60329102 150.51239258 118.20658203 151.29150391 117.79785156 C161.18361191 112.56782853 170.28768485 107.05997952 179 100 C180.34578125 98.94039062 180.34578125 98.94039062 181.71875 97.859375 C186.89037419 93.72802005 191.86396898 89.39988264 196.75 84.9375 C197.26876709 84.46723389 197.78753418 83.99696777 198.32202148 83.51245117 C221.1366532 62.40067429 238.52315471 32.49335966 248 3 C248.33 3 248.66 3 249 3 C248.51130033 10.13367097 247.25237019 16.74995295 245.3125 23.625 C245.04268311 24.58865479 244.77286621 25.55230957 244.49487305 26.54516602 C230.84788782 74.31160076 200.77889333 116.51091081 160 145 C159.36255859 145.45020508 158.72511719 145.90041016 158.06835938 146.36425781 C151.06648821 151.27854741 143.85064423 155.79512973 136.4375 160.0625 C135.78257568 160.4450293 135.12765137 160.82755859 134.45288086 161.22167969 C130.63247312 163.36650455 127.41156849 164.95999873 123 165 C120.22193757 163.91980817 117.88314566 162.82532438 115.3125 161.375 C114.58208496 160.97474609 113.85166992 160.57449219 113.09912109 160.16210938 C96.6874526 150.94683416 81.9140238 139.56859009 68.09375 126.84765625 C65.93666737 124.86054661 65.93666737 124.86054661 63 123 C63 122.34 63 121.68 63 121 C62.40316406 120.73832031 61.80632812 120.47664063 61.19140625 120.20703125 C58.85716926 118.92132852 57.6400907 117.72102904 55.9375 115.6875 C55.33550781 114.97335937 54.73351562 114.25921875 54.11328125 113.5234375 C53.41589844 112.69070313 52.71851563 111.85796875 52 111 C51.14792969 110.02289063 50.29585937 109.04578125 49.41796875 108.0390625 C43.04914768 100.71418544 37.29320031 93.15361916 32 85 C31.63696777 84.44151367 31.27393555 83.88302734 30.89990234 83.30761719 C16.40184509 60.75792602 -1.2009602 27.46543762 0 0 Z " fill="#0A0A0A" transform="translate(23,159)"/>
<path d="M0 0 C0.22867356 6.29811588 0.3859904 12.59515878 0.49438477 18.89648438 C0.53957687 21.03849279 0.60094654 23.18022459 0.67895508 25.32128906 C0.78847371 28.40499015 0.83923294 31.48501819 0.87890625 34.5703125 C0.92535782 35.52366486 0.97180939 36.47701721 1.01966858 37.45925903 C1.02177167 40.24515318 0.91765025 42.3657936 0 45 C-2.70201357 47.63992227 -5.6493706 49.30063991 -9 51 C-9.98871094 51.62648437 -10.97742188 52.25296875 -11.99609375 52.8984375 C-13.20458984 53.62933594 -13.20458984 53.62933594 -14.4375 54.375 C-15.26121094 54.87773437 -16.08492187 55.38046875 -16.93359375 55.8984375 C-19 57 -19 57 -21 57 C-21 46.11 -21 35.22 -21 24 C-34.81376526 29.64234387 -34.81376526 29.64234387 -48.3125 36 C-49.05113281 36.37125 -49.78976563 36.7425 -50.55078125 37.125 C-53.73164152 41.24039873 -52.10459921 47.58219858 -51.51953125 52.47265625 C-47.62608743 79.05775681 -36.86206096 100.8904489 -22 123 C-22.06396973 122.11852295 -22.12793945 121.2370459 -22.19384766 120.32885742 C-23.64369121 95.8149283 -23.64369121 95.8149283 -19.234375 89.45214844 C-14.05963297 84.8485548 -7.0444615 81 0 81 C0 110.04 0 139.08 0 169 C-27.47525446 158.00989822 -49.56255179 124.53762079 -61.15234375 98.5 C-69.49030047 78.80390295 -78.69631434 48.35479279 -73 27 C-55.92945523 10.78298247 -23.30082764 -0.33275893 0 0 Z " fill="#0C0C0C" transform="translate(144,93)"/>
<path d="M0 0 C0.495 0.99 0.495 0.99 1 2 C-0.12792969 2.37769531 -1.25585938 2.75539062 -2.41796875 3.14453125 C-21.83491313 9.84931762 -39.1028598 18.97061288 -55 32 C-55.59280762 32.48001465 -56.18561523 32.9600293 -56.79638672 33.45458984 C-63.92063767 39.24440088 -70.76080219 45.25372958 -77 52 C-77.91523437 52.87140625 -78.83046875 53.7428125 -79.7734375 54.640625 C-86.21412633 61.25412096 -87.86138552 66.9118263 -87.75 76.125 C-87.60751233 80.09503463 -87.3298125 84.04157417 -87 88 C-86.94199219 88.84965332 -86.88398437 89.69930664 -86.82421875 90.57470703 C-84.9762294 117.30071581 -78.0263144 143.52835747 -65 167 C-64.34456519 168.22109295 -63.68961644 169.44244692 -63.03515625 170.6640625 C-51.85870348 191.19122178 -35.52476145 209.80670678 -17 224 C-28.94912574 224 -44.96384119 207.45684819 -53.32421875 199.5234375 C-55.5602668 197.4146973 -57.83568144 195.41358423 -60.1875 193.4375 C-88.93144368 168.36803984 -108.41908087 129.09973143 -115 92 C-115.14276367 91.21979492 -115.28552734 90.43958984 -115.43261719 89.63574219 C-117.18942183 79.83316708 -118.33881868 69.99915776 -119 60.0625 C-119.07822998 59.13276367 -119.15645996 58.20302734 -119.23706055 57.24511719 C-119.57509781 50.75719497 -119.57509781 50.75719497 -116.81640625 47.125 C-115.88699219 46.42375 -114.95757812 45.7225 -114 45 C-113.20464844 44.32839844 -112.40929687 43.65679687 -111.58984375 42.96484375 C-97.29658142 32.03965501 -81.58421669 22.96347567 -65 16 C-64.28086426 15.69755371 -63.56172852 15.39510742 -62.82080078 15.08349609 C-42.71302251 6.80278354 -21.51980129 2.57966072 0 0 Z " fill="#0A0A0A" transform="translate(140,45)"/>
<path d="M0 0 C7.72489093 -0.32972752 14.87036466 0.61821966 22.4375 2.125 C23.57912598 2.35018311 24.72075195 2.57536621 25.89697266 2.80737305 C35.86511168 4.84615173 45.44825903 7.50761956 55 11 C55.81662109 11.29777344 56.63324219 11.59554687 57.47460938 11.90234375 C78.12421049 19.55269558 97.09107328 29.77884977 114.265625 43.625 C115.78432563 44.82901491 117.38743082 45.92495388 119 47 C119.31578119 49.98134596 119.42399949 52.70532882 119.375 55.6875 C119.36557373 56.57381104 119.35614746 57.46012207 119.34643555 58.37329102 C118.22652393 109.51889619 96.64578659 158.8006115 59.828125 194.3671875 C55.68221632 198.07015722 51.33524699 201.52333749 47 205 C46.23042969 205.64839844 45.46085937 206.29679688 44.66796875 206.96484375 C39.36049606 211.38623071 33.76709994 215.27276028 28 219.0625 C26.86763916 219.81539307 26.86763916 219.81539307 25.71240234 220.58349609 C25.00293457 221.04191895 24.2934668 221.5003418 23.5625 221.97265625 C22.92441406 222.38781494 22.28632813 222.80297363 21.62890625 223.23071289 C21.09136719 223.48457764 20.55382812 223.73844238 20 224 C19.34 223.67 18.68 223.34 18 223 C19.35931641 221.85724609 19.35931641 221.85724609 20.74609375 220.69140625 C59.13399457 188.2463138 82.43103588 144.53402549 86.98217773 94.28540039 C89.68959931 74.20317263 89.68959931 74.20317263 82.421875 56.44628906 C81.95265625 55.90713867 81.4834375 55.36798828 81 54.8125 C80.51015625 54.24370117 80.0203125 53.67490234 79.515625 53.08886719 C71.74358686 44.16003729 63.36564356 36.24276435 54 29 C53.03320312 28.23171875 52.06640625 27.4634375 51.0703125 26.671875 C36.14319917 15.18031147 18.23177922 5.83216262 0 1 C0 0.67 0 0.34 0 0 Z " fill="#0A0A0A" transform="translate(155,46)"/>
<path d="M0 0 C4.06065872 1.23713946 7.51271532 2.71237793 11.125 4.9375 C11.95257813 5.44152344 12.78015625 5.94554688 13.6328125 6.46484375 C14.80457031 7.22474609 14.80457031 7.22474609 16 8 C16.69931641 8.42949951 17.39863281 8.85899902 18.11914062 9.30151367 C20 11 20 11 20.48583984 13.18896484 C20.47762207 14.02121582 20.4694043 14.8534668 20.4609375 15.7109375 C20.45707031 16.62617187 20.45320313 17.54140625 20.44921875 18.484375 C20.41248047 19.91523438 20.41248047 19.91523438 20.375 21.375 C20.37371094 22.32117188 20.37242187 23.26734375 20.37109375 24.2421875 C20.31170005 28.94088917 20.26146408 32.77336908 18 37 C15.78515625 38.82104492 15.78515625 38.82104492 13.0625 40.48046875 C12.08539063 41.08697266 11.10828125 41.69347656 10.1015625 42.31835938 C9.07804687 42.93517578 8.05453125 43.55199219 7 44.1875 C4.97794455 45.4290013 2.95705267 46.67240032 0.9375 47.91796875 C-0.41021484 48.73430786 -0.41021484 48.73430786 -1.78515625 49.56713867 C-4.0849175 50.94517483 -4.0849175 50.94517483 -6 53 C-5.21496094 53.51949219 -4.42992187 54.03898437 -3.62109375 54.57421875 C1.98622354 58.29637661 7.55682628 62.0413282 13 66 C8.72630361 85.21128284 -1.44046511 105.59078146 -15 120 C-15.33 120 -15.66 120 -16 120 C-16.09951569 115.16200639 -16.17177037 110.32461975 -16.21972656 105.48583984 C-16.23973571 103.8428305 -16.26695213 102.19989141 -16.30175781 100.55712891 C-16.35075305 98.18374212 -16.37307504 95.81130351 -16.390625 93.4375 C-16.41127014 92.71320801 -16.43191528 91.98891602 -16.45318604 91.24267578 C-16.45528909 86.36918806 -15.38701878 83.07094837 -12.95892334 78.84399414 C-11.95434331 76.91220293 -11.44778603 75.12384804 -11 73 C-11.680625 72.773125 -12.36125 72.54625 -13.0625 72.3125 C-15.64985188 71.15644916 -17.30851707 70.03883229 -19.5 68.3125 C-22.2777048 66.2386273 -22.2777048 66.2386273 -25.75 66.0625 C-28.21667976 67.00577813 -28.21667976 67.00577813 -31 69 C-31.46988931 71.31193616 -31.46988931 71.31193616 -31.41650391 74.0378418 C-31.43307037 75.09041672 -31.44963684 76.14299164 -31.46670532 77.22746277 C-31.46995819 78.37314224 -31.47321106 79.51882172 -31.4765625 80.69921875 C-31.49993179 82.47278496 -31.49993179 82.47278496 -31.52377319 84.28218079 C-31.57143845 88.08394596 -31.59904306 91.88552992 -31.625 95.6875 C-31.70747611 104.11579897 -31.81151195 112.54335028 -31.95776367 120.97079468 C-31.99451829 123.60684967 -31.99726017 126.24003802 -31.99023438 128.8762207 C-32.19464653 139.00397067 -32.19464653 139.00397067 -36.203125 143.01953125 C-37.51840349 143.99752546 -38.86908781 144.9296004 -40.25 145.8125 C-41.25353516 146.54436523 -41.25353516 146.54436523 -42.27734375 147.29101562 C-45.73511039 149.75357045 -49.04314666 151.45042275 -53 153 C-53.30173144 140.90005882 -53.53245207 128.80101754 -53.67355824 116.69807529 C-53.74129913 111.07739099 -53.83310035 105.45928692 -53.98071289 99.84008789 C-54.1223852 94.41280405 -54.19977517 88.98799444 -54.23340416 83.55900383 C-54.25735373 81.49226863 -54.30412955 79.42566325 -54.37449074 77.35998726 C-54.88941008 61.61080002 -54.88941008 61.61080002 -51.75035477 57.27323151 C-48.29883653 53.96575016 -44.31445912 52.0210399 -40 50 C-38.15531539 48.84105313 -36.32366221 47.66063987 -34.515625 46.4453125 C-33.65090576 45.90028076 -32.78618652 45.35524902 -31.89526367 44.79370117 C-30.06376339 43.63834313 -28.24154364 42.46819079 -26.42700195 41.28637695 C-21.99305919 38.41455041 -17.63996032 35.75080905 -12.83984375 33.53515625 C-6.08076122 30.31961498 -6.08076122 30.31961498 -1 25 C1.24625018 16.88793672 0.69751657 8.30991965 0 0 Z " fill="#0B0B0B" transform="translate(205,109)"/>
<path d="M0 0 C0.8247583 0.31163086 1.6495166 0.62326172 2.49926758 0.94433594 C19.73543438 7.63573049 35.01147432 17.65827355 49 29.6875 C49.60328125 30.20594482 50.2065625 30.72438965 50.828125 31.25854492 C54.89744518 34.85170446 58.44337913 38.73442947 61.875 42.9375 C58.49612252 41.62920825 55.25727624 40.17943065 52.0234375 38.546875 C33.83348092 29.50106733 15.91132215 23.34685806 -4.125 19.9375 C-5.27871094 19.73769531 -6.43242187 19.53789063 -7.62109375 19.33203125 C-33.81496778 16.15606333 -62.54453564 28.47875424 -85.36621094 40.07373047 C-87.57199287 41.15702537 -89.82438212 42.07589605 -92.125 42.9375 C-73.06248644 19.23815882 -31.38901584 -11.98079028 0 0 Z " fill="#0F0F0F" transform="translate(163.125,56.0625)"/>
<path d="M0 0 C14.625 1.125 14.625 1.125 20 3 C20.6252913 15.41269759 21.11101138 27.82059941 21.1875 40.25 C21.20039063 41.26642578 21.21328125 42.28285156 21.2265625 43.33007812 C21.22849609 44.75223633 21.22849609 44.75223633 21.23046875 46.203125 C21.23457764 47.03489258 21.23868652 47.86666016 21.24291992 48.72363281 C20.89344013 51.99855705 20.04621664 54.15208369 17.45947266 56.24853516 C16.8669873 56.59190918 16.27450195 56.9352832 15.6640625 57.2890625 C15.01179687 57.67320312 14.35953125 58.05734375 13.6875 58.453125 C13.006875 58.83984375 12.32625 59.2265625 11.625 59.625 C10.95210937 60.01945312 10.27921875 60.41390625 9.5859375 60.8203125 C6.42871633 62.65995318 3.27273956 64.36363022 0 66 C0 44.22 0 22.44 0 0 Z " fill="#0C0C0C" transform="translate(152,93)"/>
<path d="M0 0 C0.33 0 0.66 0 1 0 C0.51679152 6.2054142 -0.33318124 11.99945246 -2 18 C-2.99 18 -3.98 18 -5 18 C-6 16 -6 16 -4.78515625 12.3046875 C-4.21866415 10.82514342 -3.64408111 9.34867819 -3.0625 7.875 C-2.77181641 7.12089844 -2.48113281 6.36679688 -2.18164062 5.58984375 C-1.46125002 3.72391398 -0.73149596 1.8616042 0 0 Z " fill="#4A4B4A" transform="translate(271,162)"/>
<path d="M0 0 C1.9009762 2.8514643 2.96265899 5.29710476 4.125 8.5 C4.47820313 9.4590625 4.83140625 10.418125 5.1953125 11.40625 C6 14 6 14 6 17 C5.01 17 4.02 17 3 17 C2.49255577 15.10614563 1.99435426 13.20981334 1.5 11.3125 C1.2215625 10.25675781 0.943125 9.20101562 0.65625 8.11328125 C0.0608285 5.28857328 -0.12786492 2.87163292 0 0 Z " fill="#505051" transform="translate(23,159)"/>
<path d="M0 0 C0.33 0.66 0.66 1.32 1 2 C-0.43554025 2.50559908 -1.8735202 3.0042749 -3.3125 3.5 C-4.51326172 3.91765625 -4.51326172 3.91765625 -5.73828125 4.34375 C-8 5 -8 5 -11 5 C-11 4.34 -11 3.68 -11 3 C-12.32 2.67 -13.64 2.34 -15 2 C-10.05 1.34 -5.1 0.68 0 0 Z " fill="#575857" transform="translate(140,45)"/>
<path d="M0 0 C5.44693314 -0.09688221 10.63904667 -0.12862175 16 1 C14.68 1.33 13.36 1.66 12 2 C12 2.66 12 3.32 12 4 C10.5608866 3.71640113 9.12374482 3.42278601 7.6875 3.125 C6.88699219 2.96257813 6.08648437 2.80015625 5.26171875 2.6328125 C3 2 3 2 0 0 Z " fill="#585857" transform="translate(155,46)"/>
<path d="M0 0 C0.66 0.33 1.32 0.66 2 1 C0.35 2.65 -1.3 4.3 -3 6 C-2.67 6.66 -2.34 7.32 -2 8 C-7.2734375 11.22265625 -7.2734375 11.22265625 -9 12 C-9.66 11.67 -10.32 11.34 -11 11 C-7.37 7.37 -3.74 3.74 0 0 Z " fill="#525253" transform="translate(82,87)"/>
<path d="M0 0 C0.66 0.33 1.32 0.66 2 1 C2 1.66 2 2.32 2 3 C0.3203125 4.32421875 0.3203125 4.32421875 -1.875 5.6875 C-2.59429687 6.14511719 -3.31359375 6.60273438 -4.0546875 7.07421875 C-5.01761719 7.53248047 -5.01761719 7.53248047 -6 8 C-6.66 7.67 -7.32 7.34 -8 7 C-5.36 4.69 -2.72 2.38 0 0 Z " fill="#666666" transform="translate(181,262)"/>
<path d="M0 0 C1.31611677 0.95336021 2.62778961 1.91285774 3.9375 2.875 C4.66839844 3.40867187 5.39929688 3.94234375 6.15234375 4.4921875 C8 6 8 6 9 8 C5.40608886 6.66511872 2.24509304 5.03977277 -1 3 C-0.67 2.01 -0.34 1.02 0 0 Z " fill="#6A6A69" transform="translate(114,262)"/>
<path d="M0 0 C2 1 2 1 3 3 C0.625 4.5625 0.625 4.5625 -2 6 C-2.66 5.67 -3.32 5.34 -4 5 C-2.68 3.35 -1.36 1.7 0 0 Z " fill="#2A2A2A" transform="translate(186,258)"/>
<path d="M0 0 C0.66 0.33 1.32 0.66 2 1 C1.0479279 2.00596297 0.08812654 3.00461563 -0.875 4 C-1.40867187 4.556875 -1.94234375 5.11375 -2.4921875 5.6875 C-4 7 -4 7 -6 7 C-4.60667426 3.63279613 -3.0210714 2.0140476 0 0 Z " fill="#303130" transform="translate(28,88)"/>
</svg>
